<?xml version="1.0" encoding="UTF-8" standalone="no"?><!DOCTYPE svg PUBLIC "-//W3C//DTD SVG 1.1//EN" "http://www.w3.org/Graphics/SVG/1.1/DTD/svg11.dtd"><svg width="100%" height="100%" viewBox="0 0 45 45" version="1.1" xmlns="http://www.w3.org/2000/svg" xmlns:xlink="http://www.w3.org/1999/xlink" xml:space="preserve" xmlns:serif="http://www.serif.com/" style="fill-rule:evenodd;clip-rule:evenodd;stroke-linecap:round;stroke-linejoin:round;stroke-miterlimit:1.5;"><g id="Layer_2"><path d="M13.327,12.537l6.613,-3.681l1.438,3.738l6.326,-4.083l2.243,4.198l-3.508,5.693l-4.66,0.723l-3.909,-0.896l-4.543,-5.693Z" style="fill:#ccc;stroke:#000;stroke-opacity:0;stroke-width:4.17px;"/><path d="M22.613,40.12l0,-19.217" style="fill:none;fill-rule:nonzero;stroke:#000;stroke-width:3.73px;stroke-miterlimit:4;"/><path d="M14.2,42.46c5.398,-1.657 10.977,-1.765 16.735,-0.325" style="fill:none;fill-rule:nonzero;stroke:#000;stroke-width:3.16px;stroke-miterlimit:4;"/><path d="M9.318,3.39c13.575,37.465 26.305,-0.648 26.305,-0.648" style="fill:none;fill-rule:nonzero;stroke:#000;stroke-width:2.53px;stroke-linejoin:miter;stroke-miterlimit:4;"/><path d="M9.488,2.888c8.062,0.073 16.808,-0.07 26.238,-0.43" style="fill:none;fill-rule:nonzero;stroke:#000;stroke-width:1.9px;stroke-miterlimit:4;"/><path d="M13.098,11.803c8.003,-1.867 6.277,-5.553 7.413,-0.86c1.065,4.405 7.258,-3.898 7.42,-1.958c0.215,2.595 3.293,3.513 3.293,3.513" style="fill:none;fill-rule:nonzero;stroke:#000;stroke-width:1.9px;stroke-linejoin:miter;stroke-miterlimit:4;"/></g></svg>