<?xml version="1.0" encoding="UTF-8" standalone="no"?><!DOCTYPE svg PUBLIC "-//W3C//DTD SVG 1.1//EN" "http://www.w3.org/Graphics/SVG/1.1/DTD/svg11.dtd"><svg width="100%" height="100%" viewBox="0 0 45 45" version="1.1" xmlns="http://www.w3.org/2000/svg" xmlns:xlink="http://www.w3.org/1999/xlink" xml:space="preserve" xmlns:serif="http://www.serif.com/" style="fill-rule:evenodd;clip-rule:evenodd;stroke-linecap:round;"><g id="Layer_3"><path d="M8.29,3.66c-0.533,7.697 -0.205,11.87 0.985,12.52c1.188,0.65 2.339,0.758 3.453,0.323c1.112,-0.433 2.169,-0.454 3.172,-0.062c1.002,0.393 2.163,0.252 3.485,-0.425c1.322,-0.677 1.717,-4.873 1.185,-12.59" style="fill:none;fill-rule:nonzero;stroke:#000;stroke-width:2.25px;"/><path d="M14.41,16.238l0,-13.2" style="fill:none;fill-rule:nonzero;stroke:#000;stroke-width:2.5px;stroke-linejoin:round;"/><path d="M14.465,17.053l0.312,25.575" style="fill:none;fill-rule:nonzero;stroke:#000;stroke-width:3.5px;stroke-linejoin:round;"/><path d="M34.258,42.195l-0.142,-39.663" style="fill:none;fill-rule:nonzero;stroke:#000;stroke-width:3.4px;stroke-linejoin:round;"/><path d="M33.365,2.633c-5.673,9.427 -8.05,15.558 -7.13,18.393c0.918,2.837 3.135,5.733 6.65,8.688" style="fill:#ccc;fill-rule:nonzero;stroke:#000;stroke-width:2.5px;"/></g></svg>