<?xml version="1.0" encoding="UTF-8" standalone="no"?><!DOCTYPE svg PUBLIC "-//W3C//DTD SVG 1.1//EN" "http://www.w3.org/Graphics/SVG/1.1/DTD/svg11.dtd"><svg width="100%" height="100%" viewBox="0 0 45 45" version="1.1" xmlns="http://www.w3.org/2000/svg" xmlns:xlink="http://www.w3.org/1999/xlink" xml:space="preserve" xmlns:serif="http://www.serif.com/" style="fill-rule:evenodd;clip-rule:evenodd;stroke-linecap:round;stroke-linejoin:round;"><path d="M11.214,12.077l4.601,-7.764l6.038,-1.61l5.866,8.281l-0.69,6.786l-4.946,1.265l-2.99,-1.093l0.92,6.556l4.313,5.636l2.76,-3.048l3.278,-2.128l5.118,3.681l3.105,8.339l-3.22,5.291l-7.476,0.633l-6.441,-3.565l-3.738,-4.428l-6.671,-15.24l0.173,-7.591Z" style="fill:#ccc;"/><g id="Layer_6"><path d="M26.675,9.56c-0.28,-0.783 -1.078,-2.52 -1.488,-3.235c-0.488,-0.84 -1.495,-2.103 -2.193,-2.625c-0.738,-0.543 -2.075,-0.938 -2.948,-0.878c-0.907,0.077 -2.262,0.535 -2.992,1.085c-0.375,0.295 -0.83,0.848 -1.065,1.303c-0.412,0.833 -0.385,2.515 -0.167,3.55c0.395,1.8 1.892,5.54 2.865,7.163c0.543,0.89 1.665,2.172 2.438,2.61c0.867,0.473 2.052,0.742 3.008,0.578c1.098,-0.238 1.815,-0.56 2.4,-1.337c0.35,-0.488 0.818,-1.308 0.957,-1.745c0.277,-0.902 0.18,-2.783 -0.025,-3.707c-0.19,-0.84 -0.663,-2.398 -0.79,-2.76Z" style="fill-opacity:0;fill-rule:nonzero;stroke:#000;stroke-width:3px;"/><path d="M34.875,42.405c-8.528,2.45 -15.418,-2.134 -20.668,-13.753c-5.248,-11.618 -4.535,-19.759 2.14,-24.423" style="fill-opacity:0;fill-rule:nonzero;stroke:#000;stroke-width:2.81px;"/><path d="M34.065,27.09c-0.63,-0.607 -2.102,-1.473 -2.67,-1.652c-0.803,-0.242 -2.508,-0.242 -3.105,0.065c-0.645,0.355 -1.715,1.635 -1.997,2.438c-0.282,0.845 -0.163,2.735 0.005,3.5c0.365,1.623 2.325,5.8 3.282,7.198c0.57,0.815 1.85,1.995 2.725,2.432c0.905,0.432 2.377,0.8 3.123,0.617c0.442,-0.115 1.042,-0.447 1.41,-0.765c0.733,-0.663 1.575,-1.92 1.685,-2.718c0.082,-0.703 -0.21,-2.602 -0.445,-3.438c-0.535,-1.845 -1.848,-4.938 -2.962,-6.44c-0.238,-0.317 -0.825,-1.015 -1.05,-1.238Z" style="fill-opacity:0;fill-rule:nonzero;stroke:#000;stroke-width:3.25px;"/><path d="M26.048,30.633c-1.718,0.32 -3.504,-1.328 -5.358,-4.942c-1.855,-3.615 -2.218,-6.293 -1.088,-8.035" style="fill-opacity:0;fill-rule:nonzero;stroke:#000;stroke-width:2.81px;"/><path d="M10.993,9.598l-2.65,-5.223" style="fill:none;fill-rule:nonzero;stroke:#000;stroke-width:1.69px;"/><path d="M8.47,4.585l-1.03,-2.08" style="fill:none;fill-rule:nonzero;stroke:#000;stroke-width:2.81px;"/></g></svg>