<?xml version="1.0" encoding="UTF-8" standalone="no"?><!DOCTYPE svg PUBLIC "-//W3C//DTD SVG 1.1//EN" "http://www.w3.org/Graphics/SVG/1.1/DTD/svg11.dtd"><svg width="100%" height="100%" viewBox="0 0 45 45" version="1.1" xmlns="http://www.w3.org/2000/svg" xmlns:xlink="http://www.w3.org/1999/xlink" xml:space="preserve" xmlns:serif="http://www.serif.com/" style="fill-rule:evenodd;clip-rule:evenodd;stroke-linecap:round;stroke-linejoin:round;stroke-miterlimit:1.5;"><path d="M7.864,35.367l-4.083,-10.639l5.003,-4.198l9.316,6.383l1.898,10.409l-5.348,2.588l-6.786,-4.543Z" style="fill:#333;stroke:#000;stroke-opacity:0;stroke-width:4.17px;"/><path d="M25.979,12.882l6.268,9.776l8.166,0.69l1.725,-7.821l-8.281,-9.374l-7.476,1.035l-0.403,5.693Z" style="fill:#333;"/><g id="Layer_4"><path d="M11.118,30.79l-7.333,5.312" style="fill:none;fill-rule:nonzero;stroke:#000;stroke-width:3.25px;stroke-miterlimit:4;"/><path d="M17.77,26.08l15.128,-10.755" style="fill:none;fill-rule:nonzero;stroke:#000;stroke-width:3.12px;stroke-miterlimit:4;"/><path d="M29.688,5.708c0.712,-0.123 2.623,-0.043 3.487,0.235c0.623,0.21 2.428,1.238 3.145,1.888c1.178,1.082 3.523,4.475 4.415,6.145c0.458,0.868 1.09,2.695 1.193,3.638c0.093,0.992 -0.108,2.6 -0.498,3.527c-0.19,0.433 -0.705,1.263 -0.962,1.525c-0.55,0.54 -2.303,1.205 -3.225,1.2c-0.657,-0.015 -2.575,-0.547 -3.428,-0.98c-1.375,-0.715 -4.33,-3.383 -5.282,-4.603c-0.555,-0.723 -1.46,-2.23 -1.883,-3.105c-0.45,-0.95 -0.987,-2.472 -1.13,-3.36c-0.148,-0.973 0.098,-2.505 0.538,-3.413c0.45,-0.897 1.418,-1.887 2.182,-2.237c0.28,-0.123 1.163,-0.408 1.448,-0.46Z" style="fill:none;fill-rule:nonzero;stroke:#000;stroke-width:2.9px;stroke-miterlimit:4;"/><path d="M8.115,20.71c0.588,-0.065 2.455,0.177 3.218,0.505c0.798,0.35 2.24,1.415 2.86,1.983c1.447,1.34 3.69,4.11 4.627,5.82c0.49,0.91 1.082,2.36 1.312,3.28c0.197,0.825 0.315,2.543 0.11,3.415c-0.215,0.867 -1.098,2.53 -1.685,3.045c-0.64,0.54 -2.075,1.045 -2.93,1.04c-0.968,-0.02 -2.678,-0.377 -3.555,-0.807c-0.668,-0.337 -2.203,-1.513 -2.975,-2.26c-0.773,-0.755 -1.832,-2.05 -2.367,-2.887c-0.98,-1.55 -2.308,-5 -2.655,-6.867c-0.18,-1.03 -0.152,-2.658 0.172,-3.468c0.35,-0.823 1.365,-1.888 2.205,-2.303c0.395,-0.188 1.258,-0.445 1.663,-0.495Z" style="fill:none;fill-rule:nonzero;stroke:#000;stroke-width:3.64px;stroke-miterlimit:4;"/><path d="M39.37,11.083l3.083,-2.073" style="fill:none;fill-rule:nonzero;stroke:#000;stroke-width:2.7px;stroke-miterlimit:4;"/><path d="M13.383,22.023c1.607,-0.055 2.885,0.444 3.835,1.497c0.952,1.053 1.842,2.253 2.672,3.6c0.83,1.347 0.935,2.918 0.315,4.713" style="fill:none;fill-rule:nonzero;stroke:#000;stroke-width:3.38px;stroke-miterlimit:4;"/><path d="M30.81,10.338c0.515,-0.095 2.207,0.6 2.812,1.025c0.65,0.467 1.69,1.735 2.24,2.547c0.5,0.747 1.21,2.26 1.242,2.745c0.018,0.412 -0.175,1.217 -0.385,1.557c-0.205,0.31 -0.877,0.865 -1.205,0.975c-0.405,0.122 -1.3,-0.043 -1.898,-0.317c-0.443,-0.213 -2.165,-1.593 -2.615,-2.133c-0.567,-0.703 -1.485,-2.703 -1.645,-3.518c-0.083,-0.463 -0.025,-1.15 0.115,-1.545c0.265,-0.685 1.08,-1.283 1.338,-1.338Z" style="fill:none;fill-rule:nonzero;stroke:#000;stroke-width:1.75px;stroke-miterlimit:4;"/></g></svg>